<?xml version="1.0" encoding="UTF-8" standalone="no"?>
<svg
   xmlns:dc="http://purl.org/dc/elements/1.1/"
   xmlns:cc="http://creativecommons.org/ns#"
   xmlns:rdf="http://www.w3.org/1999/02/22-rdf-syntax-ns#"
   xmlns:svg="http://www.w3.org/2000/svg"
   xmlns="http://www.w3.org/2000/svg"
   xmlns:xlink="http://www.w3.org/1999/xlink"
   xmlns:sodipodi="http://sodipodi.sourceforge.net/DTD/sodipodi-0.dtd"
   xmlns:inkscape="http://www.inkscape.org/namespaces/inkscape"
   viewBox="0 0 254.21 254.21"
   version="1.1"
   id="svg28"
   sodipodi:docname="bitcoin.svg"
   inkscape:export-filename="/development/hashengineering/Groestlcoin-Projects/BlueWallet/img/addWallet/bitcoin@3x.png"
   inkscape:export-xdpi="39.970001"
   inkscape:export-ydpi="39.970001"
   inkscape:version="0.92.3 (2405546, 2018-03-11)">
  <metadata
     id="metadata32">
    <rdf:RDF>
      <cc:Work
         rdf:about="">
        <dc:format>image/svg+xml</dc:format>
        <dc:type
           rdf:resource="http://purl.org/dc/dcmitype/StillImage" />
        <dc:title>bitcoin</dc:title>
      </cc:Work>
    </rdf:RDF>
  </metadata>
  <sodipodi:namedview
     pagecolor="#ffffff"
     bordercolor="#666666"
     borderopacity="1"
     objecttolerance="10"
     gridtolerance="10"
     guidetolerance="10"
     inkscape:pageopacity="0"
     inkscape:pageshadow="2"
     inkscape:window-width="1613"
     inkscape:window-height="989"
     id="namedview30"
     showgrid="false"
     inkscape:zoom="0.92836629"
     inkscape:cx="127.105"
     inkscape:cy="127.105"
     inkscape:window-x="67"
     inkscape:window-y="27"
     inkscape:window-maximized="1"
     inkscape:current-layer="svg28" />
  <defs
     id="defs12">
    <style
       id="style2">.cls-1{fill:#fff;}.cls-2{fill:url(#linear-gradient);}.cls-3{fill:url(#linear-gradient-2);}.cls-4{fill:url(#linear-gradient-3);}.cls-5{fill:url(#linear-gradient-4);}</style>
    <linearGradient
       id="linear-gradient"
       x1="236.21"
       y1="198.17"
       x2="56.04"
       y2="18"
       gradientUnits="userSpaceOnUse">
      <stop
         offset="0"
         stop-color="#18839a"
         id="stop4" />
      <stop
         offset="1"
         stop-color="#1fa8c7"
         id="stop6" />
    </linearGradient>
    <linearGradient
       id="linear-gradient-2"
       x1="216.87"
       y1="217.5"
       x2="36.7"
       y2="37.33"
       xlink:href="#linear-gradient" />
    <linearGradient
       id="linear-gradient-3"
       x1="214.97"
       y1="219.41"
       x2="34.79"
       y2="39.24"
       xlink:href="#linear-gradient" />
    <linearGradient
       id="linear-gradient-4"
       x1="163.78"
       y1="270.59"
       x2="-16.39"
       y2="90.42"
       xlink:href="#linear-gradient" />
    <linearGradient
       inkscape:collect="always"
       xlink:href="#linear-gradient"
       id="linearGradient839"
       gradientUnits="userSpaceOnUse"
       x1="236.21"
       y1="198.17"
       x2="56.04"
       y2="18" />
  </defs>
  <title
     id="title14">bitcoin</title>
  <g
     id="Layer_2"
     data-name="Layer 2"
     transform="matrix(0.96353274,0,0,0.96353274,4.6652173,4.6771267)">
    <g
       id="Layer_1-2"
       data-name="Layer 1">
      <path
         class="cls-1"
         d="m 169.59,205.41 q -9.74,-1.59 -42.57,-2.47 -17.86,-0.52 -22.32,-1.24 c -5.11,-0.73 -8.53,-1.94 -10.29,-3.63 a 7.28,7.28 0 0 1 -2.63,-5.2 c 0,-2.11 0.83,-4.65 2.48,-7.65 1.65,-3 4.82,-6.5 9.5,-10.5 a 80,80 0 0 0 22.12,3.28 q 26.25,0 41.84,-14.53 15.59,-14.53 15.59,-35 0,-16.29 -7.42,-27.29 H 198 l 7.21,-20.87 H 203 a 12.89,12.89 0 0 1 -3.68,4.19 11.9,11.9 0 0 1 -4.72,2 58.48,58.48 0 0 1 -9.12,0.48 h -21 l -0.14,-0.17 q 3.85,-3.58 18.51,-19.57 10,-10.9 14.46,-20.67 A 29.17,29.17 0 0 0 200.2,34.15 20.21,20.21 0 0 0 193.53,19 c -0.32,-0.31 -0.65,-0.59 -1,-0.88 q -3.9,-2.34 -8,-4.41 a 25.68,25.68 0 0 0 -7.63,-1.1 21.6,21.6 0 0 0 -15.56,6 q -6.23,6 -7.74,17.12 h 2.23 a 20.43,20.43 0 0 1 7.07,-10.32 17.76,17.76 0 0 1 10.79,-3.52 15.16,15.16 0 0 1 11.37,5 17.75,17.75 0 0 1 4.75,12.76 q 0,10.18 -8.66,22.47 -6.37,9 -19.57,22 -15,-9.48 -35.16,-9.49 -25.5,0 -41.84,15.63 -16.34,15.63 -16.34,37.3 a 48.77,48.77 0 0 0 7.16,25.92 48.08,48.08 0 0 0 20.6,18.17 q -16.42,13.73 -21,21.22 -4.58,7.49 -4.49,13.13 a 13.06,13.06 0 0 0 3.42,8.85 q 3.42,3.91 11.71,8.86 -14,14.47 -16,16.83 5.33,2.7 10.92,4.91 A 35.5,35.5 0 0 1 83,240 78.07,78.07 0 0 1 94.4,225 q 19.27,2.74 55.13,3.71 24.54,0.63 32.83,4.11 a 13.27,13.27 0 0 1 6.55,5.4 126.11,126.11 0 0 0 12.28,-7.8 29.31,29.31 0 0 0 -7.93,-14 q -8.85,-8.93 -23.67,-11.01 z M 103.92,91.84 q 8,-9.37 19.69,-9.38 12.69,0 20.8,10.49 11,14.31 11,39.58 0,19.4 -7.78,28.45 A 25,25 0 0 1 127.74,170 q -12.7,0 -21,-10.49 Q 96,145.72 96,120.61 q 0,-19.39 7.92,-28.77 z"
         id="path16"
         inkscape:connector-curvature="0"
         style="fill:#ffffff" />
      <path
         class="cls-2"
         d="m 254.21,127.1 a 127,127 0 0 0 -61.67,-109 c 0.34,0.29 0.67,0.57 1,0.88 a 20.21,20.21 0 0 1 6.65,15.07 29.17,29.17 0 0 1 -2.89,12.42 q -4.46,9.76 -14.46,20.67 -14.67,16 -18.51,19.57 l 0.14,0.17 h 21 a 58.48,58.48 0 0 0 9.12,-0.48 11.9,11.9 0 0 0 4.72,-2 12.89,12.89 0 0 0 3.69,-4.13 h 2.23 L 198,101.14 h -22.1 q 7.41,11 7.42,27.29 0,20.44 -15.59,35 -15.59,14.56 -41.85,14.57 a 80,80 0 0 1 -22.12,-3.23 q -7,6 -9.5,10.5 c -1.65,3 -2.48,5.54 -2.48,7.65 a 7.28,7.28 0 0 0 2.63,5.2 c 1.76,1.69 5.18,2.9 10.29,3.63 q 4.45,0.7 22.32,1.24 32.83,0.88 42.57,2.47 14.82,2.07 23.67,11 a 29.31,29.31 0 0 1 7.93,14 126.9,126.9 0 0 0 53.02,-103.36 z"
         id="path18"
         inkscape:connector-curvature="0"
         style="fill:url(#linearGradient839)" />
      <path
         class="cls-3"
         d="m 127.74,170 a 25,25 0 0 0 19.84,-9 q 7.78,-9.06 7.78,-28.45 0,-25.27 -11,-39.58 -8.1,-10.49 -20.8,-10.49 -11.74,0 -19.69,9.38 -7.95,9.38 -7.87,28.75 0,25.11 10.79,38.94 Q 115,170 127.74,170 Z"
         id="path20"
         inkscape:connector-curvature="0"
         style="fill:url(#linear-gradient-2)" />
      <path
         class="cls-4"
         d="M 73.93,214.81 A 13.06,13.06 0 0 1 70.51,206 q 0,-5.58 4.53,-13.09 Q 79.57,185.4 96,171.65 A 48.08,48.08 0 0 1 75.44,153.4 48.77,48.77 0 0 1 68.28,127.48 q 0,-21.67 16.34,-37.3 16.34,-15.63 41.84,-15.63 20.19,0 35.16,9.49 13.19,-12.9 19.57,-22 8.66,-12.29 8.66,-22.47 a 17.75,17.75 0 0 0 -4.75,-12.76 15.16,15.16 0 0 0 -11.37,-5 17.76,17.76 0 0 0 -10.79,3.52 20.43,20.43 0 0 0 -7.07,10.32 h -2.23 q 1.52,-11.15 7.74,-17.12 a 21.6,21.6 0 0 1 15.56,-6 25.68,25.68 0 0 1 7.63,1.1 A 127.16249,127.16249 0 0 0 69.63,240.5 q 2.06,-2.37 16,-16.83 -8.27,-4.95 -11.7,-8.86 z"
         id="path22"
         inkscape:connector-curvature="0"
         style="fill:url(#linear-gradient-3)" />
      <path
         class="cls-5"
         d="m 182.36,232.78 q -8.28,-3.48 -32.83,-4.11 -35.85,-1 -55.13,-3.71 A 78.07,78.07 0 0 0 83,240 a 35.5,35.5 0 0 0 -2.46,5.42 127.32,127.32 0 0 0 108.36,-7.23 13.27,13.27 0 0 0 -6.54,-5.41 z"
         id="path24"
         inkscape:connector-curvature="0"
         style="fill:url(#linear-gradient-4)" />
    </g>
  </g>
</svg>
