<?xml version="1.0" encoding="UTF-8" standalone="no"?>
<svg
   xmlns:dc="http://purl.org/dc/elements/1.1/"
   xmlns:cc="http://creativecommons.org/ns#"
   xmlns:rdf="http://www.w3.org/1999/02/22-rdf-syntax-ns#"
   xmlns:svg="http://www.w3.org/2000/svg"
   xmlns="http://www.w3.org/2000/svg"
   xmlns:sodipodi="http://sodipodi.sourceforge.net/DTD/sodipodi-0.dtd"
   xmlns:inkscape="http://www.inkscape.org/namespaces/inkscape"
   viewBox="0 0 400 381"
   version="1.1"
   id="svg18"
   sodipodi:docname="btc-shape.svg"
   width="400"
   height="381"
   inkscape:export-filename="/development/hashengineering/Groestlcoin-Projects/BlueWallet/img/btc-shape.png"
   inkscape:export-xdpi="96"
   inkscape:export-ydpi="96"
   inkscape:version="0.92.3 (2405546, 2018-03-11)">
  <metadata
     id="metadata22">
    <rdf:RDF>
      <cc:Work
         rdf:about="">
        <dc:format>image/svg+xml</dc:format>
        <dc:type
           rdf:resource="http://purl.org/dc/dcmitype/StillImage" />
        <dc:title>btc-shape</dc:title>
      </cc:Work>
    </rdf:RDF>
  </metadata>
  <sodipodi:namedview
     pagecolor="#ffffff"
     bordercolor="#666666"
     borderopacity="1"
     objecttolerance="10"
     gridtolerance="10"
     guidetolerance="10"
     inkscape:pageopacity="0"
     inkscape:pageshadow="2"
     inkscape:window-width="1171"
     inkscape:window-height="732"
     id="namedview20"
     showgrid="false"
     inkscape:zoom="0.78848018"
     inkscape:cx="181.36157"
     inkscape:cy="149.655"
     inkscape:window-x="67"
     inkscape:window-y="27"
     inkscape:window-maximized="0"
     inkscape:current-layer="svg18" />
  <defs
     id="defs4">
    <style
       id="style2">.cls-1{opacity:0.3;}.cls-2{fill:#fff;}</style>
  </defs>
  <title
     id="title6">btc-shape</title>
  <g
     id="Layer_2"
     data-name="Layer 2"
     transform="matrix(1.3347065,0,0,1.3347065,0.50899805,6.463946)">
    <g
       id="Layer_1-2"
       data-name="Layer 1">
      <g
         class="cls-1"
         id="g14"
         style="opacity:0.3">
        <path
           class="cls-2"
           d="m 114.36,298 q -11,-6.57 -15.58,-11.78 a 17.38,17.38 0 0 1 -4.56,-11.78 v 0 q 0,-7.43 6,-17.41 6,-9.98 27.84,-28.24 -17.79,-8.7 -27.31,-24.29 A 64.8,64.8 0 0 1 91.26,170 v 0 q 0,-28.84 21.74,-49.64 21.74,-20.8 55.68,-20.8 26.88,0 46.79,12.63 Q 233,95.07 241.51,83 253,66.67 253,53.12 q 0,-10.33 -6.32,-17 a 20.16,20.16 0 0 0 -15.13,-6.65 23.58,23.58 0 0 0 -14.36,4.69 q -6.36,4.68 -9.4,13.73 h -3 q 2,-14.83 10.3,-22.78 8.3,-7.95 20.71,-7.95 c 0.58,0 1.15,0 1.72,0 h 0.34 l 1.34,0.09 h 0.37 c 0.44,0.05 0.87,0.09 1.29,0.15 l 0.33,0.05 1.31,0.22 0.26,0.05 1.36,0.29 0.17,0.05 c 0.48,0.11 1,0.24 1.41,0.38 h 0.09 c 0.5,0.15 1,0.31 1.46,0.48 v 0 c 0.5,0.17 1,0.36 1.47,0.56 A 169.54,169.54 0 0 0 60.47,299.31 h 52.65 z"
           id="path8"
           inkscape:connector-curvature="0"
           style="fill:#ffffff" />
        <path
           class="cls-2"
           d="m 164.89,110.13 q -15.63,0 -26.2,12.48 -10.57,12.48 -10.56,38.28 0,27.17 9.48,44.39 c 0.22,0.4 0.45,0.77 0.68,1.15 0.23,0.38 0.55,1 0.84,1.45 0.29,0.45 0.43,0.65 0.64,1 0.33,0.51 0.65,1 1,1.5 0.12,0.18 0.26,0.35 0.39,0.53 0.44,0.62 0.88,1.23 1.35,1.83 0.12,0.16 0.26,0.31 0.39,0.47 q 10.89,13.48 27.49,13.49 a 33.27,33.27 0 0 0 26.4,-12 q 10.36,-12.06 10.36,-37.86 0,-33.63 -14.58,-52.67 -10.78,-14.03 -27.68,-14.04 z"
           id="path10"
           inkscape:connector-curvature="0"
           style="fill:#ffffff" />
        <path
           class="cls-2"
           d="m 256,24 0.23,0.19 c 0.57,0.47 1.13,1 1.67,1.49 a 28.18,28.18 0 0 1 7.61,11.81 27,27 0 0 1 1.25,8.24 38.91,38.91 0 0 1 -3.85,16.52 q -5.94,13 -19.25,27.51 -19.51,21.28 -24.63,26 l 0.18,0.22 h 27.93 a 77.15,77.15 0 0 0 12.14,-0.64 15.71,15.71 0 0 0 6.29,-2.6 17.06,17.06 0 0 0 4.89,-5.58 h 3 L 263.87,135 h -29.41 q 9.87,14.64 9.88,36.32 0,27.22 -20.75,46.56 -20.75,19.34 -55.68,19.32 a 106.65,106.65 0 0 1 -29.44,-4.3 q -9.34,8 -12.64,14 -3.3,6 -3.3,10.18 0,3.57 3.5,6.93 3.5,3.36 13.69,4.83 5.94,0.93 29.7,1.64 43.71,1.19 56.65,3.3 19.73,2.75 31.51,14.59 c 0.6,0.61 1.18,1.24 1.74,1.87 l 0.47,0.54 c 0.43,0.51 0.85,1 1.26,1.55 l 0.35,0.45 c 0.5,0.67 1,1.34 1.44,2 l 0.22,0.35 c 0.38,0.59 0.74,1.19 1.09,1.8 l 0.3,0.53 c 0.33,0.61 0.65,1.23 1,1.85 H 278.6 A 170.94,170.94 0 0 0 299.31,278.6 V 60.46 A 170.27,170.27 0 0 0 254.25,22.65 c 0.61,0.43 1.2,0.88 1.75,1.35 z"
           id="path12"
           inkscape:connector-curvature="0"
           style="fill:#ffffff" />
      </g>
    </g>
  </g>
</svg>
