<?xml version="1.0" encoding="UTF-8" standalone="no"?>
<svg
   xmlns:dc="http://purl.org/dc/elements/1.1/"
   xmlns:cc="http://creativecommons.org/ns#"
   xmlns:rdf="http://www.w3.org/1999/02/22-rdf-syntax-ns#"
   xmlns:svg="http://www.w3.org/2000/svg"
   xmlns="http://www.w3.org/2000/svg"
   xmlns:sodipodi="http://sodipodi.sourceforge.net/DTD/sodipodi-0.dtd"
   xmlns:inkscape="http://www.inkscape.org/namespaces/inkscape"
   viewBox="0 0 400 390"
   version="1.1"
   id="svg18"
   sodipodi:docname="lnd-shape.svg"
   width="400"
   height="390"
   inkscape:export-filename="/development/hashengineering/Groestlcoin-Projects/BlueWallet/img/lnd-shape.png"
   inkscape:export-xdpi="96"
   inkscape:export-ydpi="96"
   inkscape:version="0.92.3 (2405546, 2018-03-11)">
  <metadata
     id="metadata22">
    <rdf:RDF>
      <cc:Work
         rdf:about="">
        <dc:format>image/svg+xml</dc:format>
        <dc:type
           rdf:resource="http://purl.org/dc/dcmitype/StillImage" />
        <dc:title>lnd-shape</dc:title>
      </cc:Work>
    </rdf:RDF>
  </metadata>
  <sodipodi:namedview
     pagecolor="#ffffff"
     bordercolor="#666666"
     borderopacity="1"
     objecttolerance="10"
     gridtolerance="10"
     guidetolerance="10"
     inkscape:pageopacity="0"
     inkscape:pageshadow="2"
     inkscape:window-width="1613"
     inkscape:window-height="989"
     id="namedview20"
     showgrid="false"
     inkscape:zoom="0.78929766"
     inkscape:cx="181.17373"
     inkscape:cy="-2.5338983"
     inkscape:window-x="67"
     inkscape:window-y="27"
     inkscape:window-maximized="1"
     inkscape:current-layer="svg18" />
  <defs
     id="defs4">
    <style
       id="style2">.cls-1{opacity:0.3;}.cls-2{fill:#fff;}</style>
  </defs>
  <title
     id="title6">lnd-shape</title>
  <g
     id="Layer_2"
     data-name="Layer 2"
     transform="matrix(1.3043477,0,0,1.3043477,10.000038,-0.01456784)">
    <g
       id="Layer_1-2"
       data-name="Layer 1">
      <g
         class="cls-1"
         id="g14"
         style="opacity:0.3">
        <path
           d="m 299,299 v -1.72 c -0.38,0.58 -0.77,1.15 -1.16,1.72 z"
           id="path8"
           inkscape:connector-curvature="0" />
        <path
           class="cls-2"
           d="m 270.63,90.89 c -2.69,-2.55 -3.43,-0.78 -4.63,1.26 q -23.77,40.18 -47.61,80.32 c -5.26,8.89 -10.48,17.8 -16.15,27.44 l 95.3,-27.66 0.91,1.71 a 13.94,13.94 0 0 0 -2.12,1.41 Q 243.05,226.5 189.8,277.67 L 167.58,299 h 130.26 c 0.39,-0.57 0.78,-1.14 1.16,-1.72 V 123.19 a 211.15,211.15 0 0 0 -28.37,-32.3 z"
           id="path10"
           inkscape:connector-curvature="0"
           style="fill:#ffffff" />
        <path
           class="cls-2"
           d="m 120.49,218.61 -95.4,27.73 -0.27,-0.8 L 280.3,0.19 a 3.78,3.78 0 0 0 -3.37,0.58 c -18.89,9.45 -37.73,19 -56.67,28.38 -26.65,13.16 -54.4,22.64 -84.26,25.59 -19.29,1.9 -37.58,7.65 -55.15,16 C 32.6,93.54 0,149 0,205.33 A 141.82,141.82 0 0 0 1.07,222.79 166.62,166.62 0 0 0 30.26,299 H 74 l 47.12,-79.52 z"
           id="path12"
           inkscape:connector-curvature="0"
           style="fill:#ffffff" />
      </g>
    </g>
  </g>
</svg>
